<?xml version="1.0" encoding="utf-8"?>
<!-- Generator: Adobe Illustrator 25.2.1, SVG Export Plug-In . SVG Version: 6.00 Build 0)  -->
<svg version="1.1" id="Camada_1" xmlns="http://www.w3.org/2000/svg" xmlns:xlink="http://www.w3.org/1999/xlink" x="0px" y="0px"
	 viewBox="0 0 450 222" style="enable-background:new 0 0 450 222;" xml:space="preserve">
<style type="text/css">
	.st0{fill:#070E33;}
	.st1{clip-path:url(#SVGID_2_);}
	.st2{fill:#1C5400;}
	.st3{fill:url(#SVGID_3_);}
	.st4{fill:url(#SVGID_4_);}
	.st5{fill:url(#SVGID_5_);}
	.st6{fill:url(#SVGID_6_);}
	.st7{fill:url(#SVGID_7_);}
	.st8{fill:url(#SVGID_8_);}
	.st9{fill:url(#SVGID_9_);}
	.st10{fill:url(#SVGID_10_);}
</style>
<g id="Base">
</g>
<g id="Shadow">
</g>
<g id="Background">
	<rect x="9.8" y="123.4" class="st0" width="117.6" height="67.8"/>
</g>
<g id="Design">
	<g>
		<g>
			<defs>
				<rect id="SVGID_1_" width="450" height="222"/>
			</defs>
			<clipPath id="SVGID_2_">
				<use xlink:href="#SVGID_1_"  style="overflow:visible;"/>
			</clipPath>
			<g class="st1">
				<g>
					<rect x="-6.1" y="-6.2" class="st2" width="470.7" height="243.3"/>
				</g>
				<g>
					<g>
						
							<linearGradient id="SVGID_3_" gradientUnits="userSpaceOnUse" x1="204.3538" y1="211.7465" x2="284.6666" y2="85.6301" gradientTransform="matrix(1 0 0 -1 0 221.89)">
							<stop  offset="0" style="stop-color:#90D000"/>
							<stop  offset="1" style="stop-color:#569200"/>
						</linearGradient>
						<path class="st3" d="M471.4-18H-19.1v124.8C-9.9,95,27.6,51.4,83,35.4C147.7,16.7,209.7,17,316.8,35
							c68.5,11.5,123.6-5.6,154.6-19.3V-18z"/>
						
							<linearGradient id="SVGID_4_" gradientUnits="userSpaceOnUse" x1="464.1046" y1="69.0263" x2="157.0966" y2="217.4557" gradientTransform="matrix(1 0 0 -1 0 221.89)">
							<stop  offset="0" style="stop-color:#90D000"/>
							<stop  offset="1" style="stop-color:#569200"/>
						</linearGradient>
						<path class="st4" d="M471.4-24.6H-19.1v124.8C-9.9,88.4,27.6,44.9,83,28.8c64.7-18.7,126.7-18.3,233.8-0.3
							c68.5,11.5,123.6-5.6,154.6-19.3V-24.6z"/>
						<g>
							
								<linearGradient id="SVGID_5_" gradientUnits="userSpaceOnUse" x1="476.7649" y1="171.8027" x2="200.6001" y2="147.9522" gradientTransform="matrix(1 0 0 -1 0 221.89)">
								<stop  offset="0" style="stop-color:#B7F900"/>
								<stop  offset="1" style="stop-color:#7DBB00"/>
							</linearGradient>
							<path class="st5" d="M-13.8,94c0.8-1,1.9-2,2.7-3.3C-12.2,92-13,93-13.8,94L-13.8,94z"/>
							
								<linearGradient id="SVGID_6_" gradientUnits="userSpaceOnUse" x1="480.3977" y1="205.5007" x2="200.5576" y2="181.3325" gradientTransform="matrix(1 0 0 -1 0 221.89)">
								<stop  offset="0" style="stop-color:#B7F900"/>
								<stop  offset="1" style="stop-color:#7DBB00"/>
							</linearGradient>
							<path class="st6" d="M471.4-2c-35.2,17.4-75.8,27.2-117.1,26.5h-8c-2.7,0-5.4-0.3-8-0.7c-5.4-0.3-10.7-1-16.1-1.6
								C311.5,21,300,19,288.9,17.7c-22.2-2.9-44.4-5.2-67-6.2c-22.6-1.3-45.2-1.3-67.7,1c-22.6,2-44.8,6.2-66.2,12.4
								c-21.8,5.9-41.3,16-58.5,28.5C14.2,64.5,0.4,77.3-11.5,91c15.7-17.7,49-48.8,94.1-62.2c64.7-18.7,126.7-18.3,233.8-0.3
								C384.9,39.9,440.1,22.9,471,9.2V-2H471.4z"/>
						</g>
						
							<linearGradient id="SVGID_7_" gradientUnits="userSpaceOnUse" x1="415.1072" y1="99.5896" x2="95.5762" y2="206.3116" gradientTransform="matrix(1 0 0 -1 0 221.89)">
							<stop  offset="0" style="stop-color:#90D000"/>
							<stop  offset="1" style="stop-color:#6AA600"/>
						</linearGradient>
						<path class="st7" d="M54,31.8C122.4-5.6,221.6-2.3,275.5,9.2c54,11.5,96,16,101.8-7.9c2.7-10.8-14.9-19.6-34.8-26.2H-19.1
							v125.1C-19.1,100.2-14.5,69.1,54,31.8z"/>
					</g>
					<g>
						
							<linearGradient id="SVGID_8_" gradientUnits="userSpaceOnUse" x1="473.5629" y1="-36.1116" x2="238.2313" y2="64.6536" gradientTransform="matrix(1 0 0 -1 0 221.89)">
							<stop  offset="0" style="stop-color:#90D000"/>
							<stop  offset="1" style="stop-color:#569200"/>
						</linearGradient>
						<path class="st8" d="M471.4,244.3V137.2c-15.7-0.7-83-1.6-94.1,33.1c-13,39.3-65.1,68.1-122.4,42.6
							c-39.4-17.4-75,11.5-93.4,31.4L471.4,244.3L471.4,244.3z"/>
						
							<linearGradient id="SVGID_9_" gradientUnits="userSpaceOnUse" x1="297.181" y1="-82.0842" x2="385.617" y2="67.8981" gradientTransform="matrix(1 0 0 -1 0 221.89)">
							<stop  offset="0" style="stop-color:#90D000"/>
							<stop  offset="1" style="stop-color:#6AA600"/>
						</linearGradient>
						<path class="st9" d="M471.4,244.3V138.2c-11.9,0.3-29.5,2.9-45.5,13.4c-27.6,18,8.4,53.7-65.8,75.3s-96-19-133.9-11.5
							c-26.8,5.2-27.6,20.3-25.6,28.8L471.4,244.3L471.4,244.3z"/>
						
							<linearGradient id="SVGID_10_" gradientUnits="userSpaceOnUse" x1="234.5298" y1="26.5649" x2="518.0982" y2="41.8241" gradientTransform="matrix(1 0 0 -1 0 221.89)">
							<stop  offset="0" style="stop-color:#90D000"/>
							<stop  offset="1" style="stop-color:#569200"/>
						</linearGradient>
						<path class="st10" d="M166.1,244.3c7.3-7.5,15.3-14.7,24.1-20.6c6.1-3.9,12.6-7.5,19.5-9.8c6.9-2.3,14.2-3.6,21.8-3.9
							c7.3,0.3,14.5,2,21.4,4.6l11.1,4.3c3.8,1.3,7.7,2,11.5,3.3c15.7,3.3,32.1,3.3,47.4-1s28.7-12.4,39-22.9l3.4-4.3l1.9-2l1.5-2.3
							l3.1-4.3l2.3-4.6l1.1-2.3l0.8-2.3l1.9-4.9c1.1-3.3,2.7-6.2,4.6-8.8c3.8-5.6,10.3-9.8,16.8-13.4c6.9-3.3,14.2-5.6,21.8-7.2
							c15.3-3.3,31-4.3,46.7-3.9c-15.7-0.7-31.4,0.3-46.7,3.3c-7.7,1.6-15.3,3.6-22.2,6.9c-6.9,3.3-13.4,7.5-17.6,13.4
							c-2.3,2.9-3.8,6.2-5,9.5l-1.9,4.6l-1.1,2.3l-1.1,2.3l-2.7,4.6l-3.1,4.3l-1.5,2l-1.9,2l-3.4,3.9c-10.3,9.8-23.3,17.7-37.9,21.3
							c-14.5,3.6-30.6,3.6-45.2,0.3c-3.4-1-7.3-2-10.7-3.3l-10.3-4.3c-7.3-2.9-15.3-5.2-23.7-5.6c-8.4,0-16.5,1.3-24.1,3.9
							s-14.5,6.2-21,10.5c-11.1,7.2-20.7,16-29.5,25.2h8.8V244.3z"/>
					</g>
				</g>
			</g>
		</g>
	</g>
</g>
<g id="Text">
</g>
</svg>
